<?xml version="1.0" encoding="UTF-8" standalone="no"?>
<!-- Created with Inkscape (http://www.inkscape.org/) -->

<svg
   xmlns:dc="http://purl.org/dc/elements/1.1/"
   xmlns:cc="http://creativecommons.org/ns#"
   xmlns:rdf="http://www.w3.org/1999/02/22-rdf-syntax-ns#"
   xmlns:svg="http://www.w3.org/2000/svg"
   xmlns="http://www.w3.org/2000/svg"
   xmlns:sodipodi="http://sodipodi.sourceforge.net/DTD/sodipodi-0.dtd"
   xmlns:inkscape="http://www.inkscape.org/namespaces/inkscape"
   width="744.09448819"
   height="1052.3622047"
   id="svg2"
   version="1.1"
   inkscape:version="0.48.3.1 r9886"
   sodipodi:docname="mesh_noc_xy_routing.png">
  <defs
     id="defs4">
    <marker
       inkscape:stockid="Arrow1Lstart"
       orient="auto"
       refY="0.0"
       refX="0.0"
       id="Arrow1Lstart"
       style="overflow:visible">
      <path
         id="path4148"
         d="M 0.0,0.0 L 5.0,-5.0 L -12.5,0.0 L 5.0,5.0 L 0.0,0.0 z "
         style="fill-rule:evenodd;stroke:#000000;stroke-width:1.0pt"
         transform="scale(0.8) translate(12.5,0)" />
    </marker>
    <marker
       inkscape:stockid="Arrow1Lend"
       orient="auto"
       refY="0.0"
       refX="0.0"
       id="Arrow1Lend"
       style="overflow:visible;">
      <path
         id="path4151"
         d="M 0.0,0.0 L 5.0,-5.0 L -12.5,0.0 L 5.0,5.0 L 0.0,0.0 z "
         style="fill-rule:evenodd;stroke:#000000;stroke-width:1.0pt;"
         transform="scale(0.8) rotate(180) translate(12.5,0)" />
    </marker>
    <marker
       inkscape:stockid="Arrow1Lstart"
       orient="auto"
       refY="0"
       refX="0"
       id="Arrow1Lstart-6"
       style="overflow:visible">
      <path
         inkscape:connector-curvature="0"
         id="path4148-0"
         d="M 0,0 5,-5 -12.5,0 5,5 0,0 z"
         style="fill-rule:evenodd;stroke:#000000;stroke-width:1pt"
         transform="matrix(0.8,0,0,0.8,10,0)" />
    </marker>
    <marker
       inkscape:stockid="Arrow1Lend"
       orient="auto"
       refY="0"
       refX="0"
       id="Arrow1Lend-8"
       style="overflow:visible">
      <path
         inkscape:connector-curvature="0"
         id="path4151-9"
         d="M 0,0 5,-5 -12.5,0 5,5 0,0 z"
         style="fill-rule:evenodd;stroke:#000000;stroke-width:1pt"
         transform="matrix(-0.8,0,0,-0.8,-10,0)" />
    </marker>
    <marker
       inkscape:stockid="Arrow1Lstart"
       orient="auto"
       refY="0"
       refX="0"
       id="Arrow1Lstart-8"
       style="overflow:visible">
      <path
         inkscape:connector-curvature="0"
         id="path4148-05"
         d="M 0,0 5,-5 -12.5,0 5,5 0,0 z"
         style="fill-rule:evenodd;stroke:#000000;stroke-width:1pt"
         transform="matrix(0.8,0,0,0.8,10,0)" />
    </marker>
    <marker
       inkscape:stockid="Arrow1Lend"
       orient="auto"
       refY="0"
       refX="0"
       id="Arrow1Lend-5"
       style="overflow:visible">
      <path
         inkscape:connector-curvature="0"
         id="path4151-4"
         d="M 0,0 5,-5 -12.5,0 5,5 0,0 z"
         style="fill-rule:evenodd;stroke:#000000;stroke-width:1pt"
         transform="matrix(-0.8,0,0,-0.8,-10,0)" />
    </marker>
    <marker
       inkscape:stockid="Arrow1Lstart"
       orient="auto"
       refY="0"
       refX="0"
       id="Arrow1Lstart-0"
       style="overflow:visible">
      <path
         inkscape:connector-curvature="0"
         id="path4148-5"
         d="M 0,0 5,-5 -12.5,0 5,5 0,0 z"
         style="fill-rule:evenodd;stroke:#000000;stroke-width:1pt"
         transform="matrix(0.8,0,0,0.8,10,0)" />
    </marker>
    <marker
       inkscape:stockid="Arrow1Lend"
       orient="auto"
       refY="0"
       refX="0"
       id="Arrow1Lend-0"
       style="overflow:visible">
      <path
         inkscape:connector-curvature="0"
         id="path4151-5"
         d="M 0,0 5,-5 -12.5,0 5,5 0,0 z"
         style="fill-rule:evenodd;stroke:#000000;stroke-width:1pt"
         transform="matrix(-0.8,0,0,-0.8,-10,0)" />
    </marker>
    <marker
       inkscape:stockid="Arrow1Lstart"
       orient="auto"
       refY="0"
       refX="0"
       id="Arrow1Lstart-9"
       style="overflow:visible">
      <path
         inkscape:connector-curvature="0"
         id="path4148-3"
         d="M 0,0 5,-5 -12.5,0 5,5 0,0 z"
         style="fill-rule:evenodd;stroke:#000000;stroke-width:1pt"
         transform="matrix(0.8,0,0,0.8,10,0)" />
    </marker>
    <marker
       inkscape:stockid="Arrow1Lend"
       orient="auto"
       refY="0"
       refX="0"
       id="Arrow1Lend-7"
       style="overflow:visible">
      <path
         inkscape:connector-curvature="0"
         id="path4151-8"
         d="M 0,0 5,-5 -12.5,0 5,5 0,0 z"
         style="fill-rule:evenodd;stroke:#000000;stroke-width:1pt"
         transform="matrix(-0.8,0,0,-0.8,-10,0)" />
    </marker>
    <marker
       inkscape:stockid="Arrow1Lstart"
       orient="auto"
       refY="0"
       refX="0"
       id="Arrow1Lstart-2"
       style="overflow:visible">
      <path
         inkscape:connector-curvature="0"
         id="path4148-9"
         d="M 0,0 5,-5 -12.5,0 5,5 0,0 z"
         style="fill-rule:evenodd;stroke:#000000;stroke-width:1pt"
         transform="matrix(0.8,0,0,0.8,10,0)" />
    </marker>
    <marker
       inkscape:stockid="Arrow1Lend"
       orient="auto"
       refY="0"
       refX="0"
       id="Arrow1Lend-2"
       style="overflow:visible">
      <path
         inkscape:connector-curvature="0"
         id="path4151-0"
         d="M 0,0 5,-5 -12.5,0 5,5 0,0 z"
         style="fill-rule:evenodd;stroke:#000000;stroke-width:1pt"
         transform="matrix(-0.8,0,0,-0.8,-10,0)" />
    </marker>
    <marker
       inkscape:stockid="Arrow1Lstart"
       orient="auto"
       refY="0"
       refX="0"
       id="Arrow1Lstart-01"
       style="overflow:visible">
      <path
         inkscape:connector-curvature="0"
         id="path4148-33"
         d="M 0,0 5,-5 -12.5,0 5,5 0,0 z"
         style="fill-rule:evenodd;stroke:#000000;stroke-width:1pt"
         transform="matrix(0.8,0,0,0.8,10,0)" />
    </marker>
    <marker
       inkscape:stockid="Arrow1Lend"
       orient="auto"
       refY="0"
       refX="0"
       id="Arrow1Lend-26"
       style="overflow:visible">
      <path
         inkscape:connector-curvature="0"
         id="path4151-55"
         d="M 0,0 5,-5 -12.5,0 5,5 0,0 z"
         style="fill-rule:evenodd;stroke:#000000;stroke-width:1pt"
         transform="matrix(-0.8,0,0,-0.8,-10,0)" />
    </marker>
    <marker
       inkscape:stockid="Arrow1Lstart"
       orient="auto"
       refY="0"
       refX="0"
       id="Arrow1Lstart-5"
       style="overflow:visible">
      <path
         inkscape:connector-curvature="0"
         id="path4148-8"
         d="M 0,0 5,-5 -12.5,0 5,5 0,0 z"
         style="fill-rule:evenodd;stroke:#000000;stroke-width:1pt"
         transform="matrix(0.8,0,0,0.8,10,0)" />
    </marker>
    <marker
       inkscape:stockid="Arrow1Lend"
       orient="auto"
       refY="0"
       refX="0"
       id="Arrow1Lend-6"
       style="overflow:visible">
      <path
         inkscape:connector-curvature="0"
         id="path4151-85"
         d="M 0,0 5,-5 -12.5,0 5,5 0,0 z"
         style="fill-rule:evenodd;stroke:#000000;stroke-width:1pt"
         transform="matrix(-0.8,0,0,-0.8,-10,0)" />
    </marker>
    <marker
       inkscape:stockid="Arrow1Lstart"
       orient="auto"
       refY="0"
       refX="0"
       id="Arrow1Lstart-1"
       style="overflow:visible">
      <path
         inkscape:connector-curvature="0"
         id="path4148-1"
         d="M 0,0 5,-5 -12.5,0 5,5 0,0 z"
         style="fill-rule:evenodd;stroke:#000000;stroke-width:1pt"
         transform="matrix(0.8,0,0,0.8,10,0)" />
    </marker>
    <marker
       inkscape:stockid="Arrow1Lend"
       orient="auto"
       refY="0"
       refX="0"
       id="Arrow1Lend-9"
       style="overflow:visible">
      <path
         inkscape:connector-curvature="0"
         id="path4151-2"
         d="M 0,0 5,-5 -12.5,0 5,5 0,0 z"
         style="fill-rule:evenodd;stroke:#000000;stroke-width:1pt"
         transform="matrix(-0.8,0,0,-0.8,-10,0)" />
    </marker>
    <marker
       inkscape:stockid="Arrow1Lstart"
       orient="auto"
       refY="0"
       refX="0"
       id="Arrow1Lstart-93"
       style="overflow:visible">
      <path
         inkscape:connector-curvature="0"
         id="path4148-2"
         d="M 0,0 5,-5 -12.5,0 5,5 0,0 z"
         style="fill-rule:evenodd;stroke:#000000;stroke-width:1pt"
         transform="matrix(0.8,0,0,0.8,10,0)" />
    </marker>
    <marker
       inkscape:stockid="Arrow1Lend"
       orient="auto"
       refY="0"
       refX="0"
       id="Arrow1Lend-75"
       style="overflow:visible">
      <path
         inkscape:connector-curvature="0"
         id="path4151-84"
         d="M 0,0 5,-5 -12.5,0 5,5 0,0 z"
         style="fill-rule:evenodd;stroke:#000000;stroke-width:1pt"
         transform="matrix(-0.8,0,0,-0.8,-10,0)" />
    </marker>
    <marker
       inkscape:stockid="Arrow1Lstart"
       orient="auto"
       refY="0"
       refX="0"
       id="Arrow1Lstart-50"
       style="overflow:visible">
      <path
         inkscape:connector-curvature="0"
         id="path4148-23"
         d="M 0,0 5,-5 -12.5,0 5,5 0,0 z"
         style="fill-rule:evenodd;stroke:#000000;stroke-width:1pt"
         transform="matrix(0.8,0,0,0.8,10,0)" />
    </marker>
    <marker
       inkscape:stockid="Arrow1Lend"
       orient="auto"
       refY="0"
       refX="0"
       id="Arrow1Lend-80"
       style="overflow:visible">
      <path
         inkscape:connector-curvature="0"
         id="path4151-80"
         d="M 0,0 5,-5 -12.5,0 5,5 0,0 z"
         style="fill-rule:evenodd;stroke:#000000;stroke-width:1pt"
         transform="matrix(-0.8,0,0,-0.8,-10,0)" />
    </marker>
    <marker
       inkscape:stockid="Arrow1Lstart"
       orient="auto"
       refY="0"
       refX="0"
       id="Arrow1Lstart-80"
       style="overflow:visible">
      <path
         inkscape:connector-curvature="0"
         id="path4148-31"
         d="M 0,0 5,-5 -12.5,0 5,5 0,0 z"
         style="fill-rule:evenodd;stroke:#000000;stroke-width:1pt"
         transform="matrix(0.8,0,0,0.8,10,0)" />
    </marker>
    <marker
       inkscape:stockid="Arrow1Lend"
       orient="auto"
       refY="0"
       refX="0"
       id="Arrow1Lend-71"
       style="overflow:visible">
      <path
         inkscape:connector-curvature="0"
         id="path4151-22"
         d="M 0,0 5,-5 -12.5,0 5,5 0,0 z"
         style="fill-rule:evenodd;stroke:#000000;stroke-width:1pt"
         transform="matrix(-0.8,0,0,-0.8,-10,0)" />
    </marker>
    <marker
       inkscape:stockid="Arrow1Lstart"
       orient="auto"
       refY="0"
       refX="0"
       id="Arrow1Lstart-25"
       style="overflow:visible">
      <path
         inkscape:connector-curvature="0"
         id="path4148-02"
         d="M 0,0 5,-5 -12.5,0 5,5 0,0 z"
         style="fill-rule:evenodd;stroke:#000000;stroke-width:1pt"
         transform="matrix(0.8,0,0,0.8,10,0)" />
    </marker>
    <marker
       inkscape:stockid="Arrow1Lend"
       orient="auto"
       refY="0"
       refX="0"
       id="Arrow1Lend-25"
       style="overflow:visible">
      <path
         inkscape:connector-curvature="0"
         id="path4151-24"
         d="M 0,0 5,-5 -12.5,0 5,5 0,0 z"
         style="fill-rule:evenodd;stroke:#000000;stroke-width:1pt"
         transform="matrix(-0.8,0,0,-0.8,-10,0)" />
    </marker>
    <marker
       inkscape:stockid="Arrow1Lstart"
       orient="auto"
       refY="0"
       refX="0"
       id="Arrow1Lstart-51"
       style="overflow:visible">
      <path
         inkscape:connector-curvature="0"
         id="path4148-35"
         d="M 0,0 5,-5 -12.5,0 5,5 0,0 z"
         style="fill-rule:evenodd;stroke:#000000;stroke-width:1pt"
         transform="matrix(0.8,0,0,0.8,10,0)" />
    </marker>
    <marker
       inkscape:stockid="Arrow1Lend"
       orient="auto"
       refY="0"
       refX="0"
       id="Arrow1Lend-95"
       style="overflow:visible">
      <path
         inkscape:connector-curvature="0"
         id="path4151-1"
         d="M 0,0 5,-5 -12.5,0 5,5 0,0 z"
         style="fill-rule:evenodd;stroke:#000000;stroke-width:1pt"
         transform="matrix(-0.8,0,0,-0.8,-10,0)" />
    </marker>
    <marker
       inkscape:stockid="Arrow1Lstart"
       orient="auto"
       refY="0"
       refX="0"
       id="Arrow1Lstart-51-6"
       style="overflow:visible">
      <path
         inkscape:connector-curvature="0"
         id="path4148-35-3"
         d="M 0,0 5,-5 -12.5,0 5,5 0,0 z"
         style="fill-rule:evenodd;stroke:#000000;stroke-width:1pt"
         transform="matrix(0.8,0,0,0.8,10,0)" />
    </marker>
    <marker
       inkscape:stockid="Arrow1Lend"
       orient="auto"
       refY="0"
       refX="0"
       id="Arrow1Lend-95-9"
       style="overflow:visible">
      <path
         inkscape:connector-curvature="0"
         id="path4151-1-1"
         d="M 0,0 5,-5 -12.5,0 5,5 0,0 z"
         style="fill-rule:evenodd;stroke:#000000;stroke-width:1pt"
         transform="matrix(-0.8,0,0,-0.8,-10,0)" />
    </marker>
    <marker
       inkscape:stockid="Arrow1Lstart"
       orient="auto"
       refY="0"
       refX="0"
       id="Arrow1Lstart-51-61"
       style="overflow:visible">
      <path
         inkscape:connector-curvature="0"
         id="path4148-35-9"
         d="M 0,0 5,-5 -12.5,0 5,5 0,0 z"
         style="fill-rule:evenodd;stroke:#000000;stroke-width:1pt"
         transform="matrix(0.8,0,0,0.8,10,0)" />
    </marker>
    <marker
       inkscape:stockid="Arrow1Lend"
       orient="auto"
       refY="0"
       refX="0"
       id="Arrow1Lend-95-92"
       style="overflow:visible">
      <path
         inkscape:connector-curvature="0"
         id="path4151-1-9"
         d="M 0,0 5,-5 -12.5,0 5,5 0,0 z"
         style="fill-rule:evenodd;stroke:#000000;stroke-width:1pt"
         transform="matrix(-0.8,0,0,-0.8,-10,0)" />
    </marker>
    <marker
       inkscape:stockid="Arrow1Lstart"
       orient="auto"
       refY="0"
       refX="0"
       id="Arrow1Lstart-51-61-9"
       style="overflow:visible">
      <path
         inkscape:connector-curvature="0"
         id="path4148-35-9-4"
         d="M 0,0 5,-5 -12.5,0 5,5 0,0 z"
         style="fill-rule:evenodd;stroke:#000000;stroke-width:1pt"
         transform="matrix(0.8,0,0,0.8,10,0)" />
    </marker>
    <marker
       inkscape:stockid="Arrow1Lend"
       orient="auto"
       refY="0"
       refX="0"
       id="Arrow1Lend-95-92-5"
       style="overflow:visible">
      <path
         inkscape:connector-curvature="0"
         id="path4151-1-9-3"
         d="M 0,0 5,-5 -12.5,0 5,5 0,0 z"
         style="fill-rule:evenodd;stroke:#000000;stroke-width:1pt"
         transform="matrix(-0.8,0,0,-0.8,-10,0)" />
    </marker>
    <marker
       inkscape:stockid="Arrow1Lstart"
       orient="auto"
       refY="0"
       refX="0"
       id="Arrow1Lstart-51-61-3"
       style="overflow:visible">
      <path
         inkscape:connector-curvature="0"
         id="path4148-35-9-2"
         d="M 0,0 5,-5 -12.5,0 5,5 0,0 z"
         style="fill-rule:evenodd;stroke:#000000;stroke-width:1pt"
         transform="matrix(0.8,0,0,0.8,10,0)" />
    </marker>
    <marker
       inkscape:stockid="Arrow1Lend"
       orient="auto"
       refY="0"
       refX="0"
       id="Arrow1Lend-95-92-56"
       style="overflow:visible">
      <path
         inkscape:connector-curvature="0"
         id="path4151-1-9-1"
         d="M 0,0 5,-5 -12.5,0 5,5 0,0 z"
         style="fill-rule:evenodd;stroke:#000000;stroke-width:1pt"
         transform="matrix(-0.8,0,0,-0.8,-10,0)" />
    </marker>
  </defs>
  <sodipodi:namedview
     id="base"
     pagecolor="#ffffff"
     bordercolor="#666666"
     borderopacity="1.0"
     inkscape:pageopacity="0.0"
     inkscape:pageshadow="2"
     inkscape:zoom="0.7"
     inkscape:cx="-42.357851"
     inkscape:cy="558.74789"
     inkscape:document-units="px"
     inkscape:current-layer="layer1"
     showgrid="false"
     inkscape:window-width="1615"
     inkscape:window-height="1026"
     inkscape:window-x="65"
     inkscape:window-y="24"
     inkscape:window-maximized="1"
     inkscape:snap-global="false" />
  <metadata
     id="metadata7">
    <rdf:RDF>
      <cc:Work
         rdf:about="">
        <dc:format>image/svg+xml</dc:format>
        <dc:type
           rdf:resource="http://purl.org/dc/dcmitype/StillImage" />
        <dc:title></dc:title>
      </cc:Work>
    </rdf:RDF>
  </metadata>
  <g
     inkscape:label="Layer 1"
     inkscape:groupmode="layer"
     id="layer1">
    <path
       sodipodi:type="arc"
       style="fill:none;stroke:#000000;stroke-width:0.76999998;stroke-miterlimit:4;stroke-opacity:1;stroke-dasharray:none"
       id="path2987"
       sodipodi:cx="146.42857"
       sodipodi:cy="757.36218"
       sodipodi:rx="27.857143"
       sodipodi:ry="27.857143"
       d="m 174.28572,757.36218 a 27.857143,27.857143 0 1 1 -55.71429,0 27.857143,27.857143 0 1 1 55.71429,0 z"
       transform="matrix(0.6336304,0,0,0.58234835,20.432692,333.09928)" />
    <path
       sodipodi:type="arc"
       style="fill:none;stroke:#000000;stroke-width:0.76999998;stroke-miterlimit:4;stroke-opacity:1;stroke-dasharray:none"
       id="path2987-6"
       sodipodi:cx="146.42857"
       sodipodi:cy="757.36218"
       sodipodi:rx="27.857143"
       sodipodi:ry="27.857143"
       d="m 174.28572,757.36218 a 27.857143,27.857143 0 1 1 -55.71429,0 27.857143,27.857143 0 1 1 55.71429,0 z"
       transform="matrix(0.6336304,0,0,0.58234835,187.93269,332.74213)" />
    <path
       style="fill:none;stroke:#000000;stroke-width:1px;stroke-linecap:butt;stroke-linejoin:miter;stroke-opacity:1"
       d="m 130.71429,775.21933 c 132.85714,0 132.85714,0 132.85714,0"
       id="path3007"
       inkscape:connector-curvature="0" />
    <path
       sodipodi:type="arc"
       style="fill:none;stroke:#000000;stroke-width:0.76999998;stroke-miterlimit:4;stroke-opacity:1;stroke-dasharray:none"
       id="path2987-6-7"
       sodipodi:cx="146.42857"
       sodipodi:cy="757.36218"
       sodipodi:rx="27.857143"
       sodipodi:ry="27.857143"
       d="m 174.28572,757.36218 a 27.857143,27.857143 0 1 1 -55.71429,0 27.857143,27.857143 0 1 1 55.71429,0 z"
       transform="matrix(0.6336304,0,0,0.58234835,355.66875,332.74214)" />
    <path
       style="fill:none;stroke:#000000;stroke-width:1px;stroke-linecap:butt;stroke-linejoin:miter;stroke-opacity:1"
       d="m 298.45035,775.21934 c 132.85714,0 132.85714,0 132.85714,0"
       id="path3007-9"
       inkscape:connector-curvature="0" />
    <path
       sodipodi:type="arc"
       style="fill:none;stroke:#000000;stroke-width:0.76999998;stroke-miterlimit:4;stroke-opacity:1;stroke-dasharray:none"
       id="path2987-6-6"
       sodipodi:cx="146.42857"
       sodipodi:cy="757.36218"
       sodipodi:rx="27.857143"
       sodipodi:ry="27.857143"
       d="m 174.28572,757.36218 a 27.857143,27.857143 0 1 1 -55.71429,0 27.857143,27.857143 0 1 1 55.71429,0 z"
       transform="matrix(0.6336304,0,0,0.58234835,523.52589,332.02786)" />
    <path
       style="fill:none;stroke:#000000;stroke-width:1px;stroke-linecap:butt;stroke-linejoin:miter;stroke-opacity:1"
       d="m 466.30749,774.50506 c 132.85714,0 132.85714,0 132.85714,0"
       id="path3007-2"
       inkscape:connector-curvature="0" />
    <path
       style="fill:none;stroke:#000000;stroke-width:1px;stroke-linecap:butt;stroke-linejoin:miter;stroke-opacity:1"
       d="m 113.57143,757.36218 c 0,-132.85714 0,-132.85714 0,-132.85714"
       id="path3007-6"
       inkscape:connector-curvature="0" />
    <path
       style="fill:none;stroke:#000000;stroke-width:1px;stroke-linecap:butt;stroke-linejoin:miter;stroke-opacity:1"
       d="m 280.71429,757.36219 c 0,-132.85714 0,-132.85714 0,-132.85714"
       id="path3007-6-9"
       inkscape:connector-curvature="0" />
    <path
       sodipodi:type="arc"
       style="fill:none;stroke:#000000;stroke-width:0.76999998;stroke-miterlimit:4;stroke-opacity:1;stroke-dasharray:none"
       id="path2987-9"
       sodipodi:cx="146.42857"
       sodipodi:cy="757.36218"
       sodipodi:rx="27.857143"
       sodipodi:ry="27.857143"
       d="m 174.28572,757.36218 a 27.857143,27.857143 0 1 1 -55.71429,0 27.857143,27.857143 0 1 1 55.71429,0 z"
       transform="matrix(0.6336304,0,0,0.58234835,20.611263,166.49214)" />
    <path
       sodipodi:type="arc"
       style="fill:none;stroke:#000000;stroke-width:0.76999998;stroke-miterlimit:4;stroke-opacity:1;stroke-dasharray:none"
       id="path2987-6-65"
       sodipodi:cx="146.42857"
       sodipodi:cy="757.36218"
       sodipodi:rx="27.857143"
       sodipodi:ry="27.857143"
       d="m 174.28572,757.36218 a 27.857143,27.857143 0 1 1 -55.71429,0 27.857143,27.857143 0 1 1 55.71429,0 z"
       transform="matrix(0.6336304,0,0,0.58234835,188.11126,166.13499)" />
    <path
       style="fill:none;stroke:#000000;stroke-width:1px;stroke-linecap:butt;stroke-linejoin:miter;stroke-opacity:1"
       d="m 130.71429,605.93362 c 132.85714,0 132.85714,0 132.85714,0"
       id="path3007-95"
       inkscape:connector-curvature="0" />
    <path
       sodipodi:type="arc"
       style="fill:none;stroke:#000000;stroke-width:0.76999998;stroke-miterlimit:4;stroke-opacity:1;stroke-dasharray:none"
       id="path2987-6-7-1"
       sodipodi:cx="146.42857"
       sodipodi:cy="757.36218"
       sodipodi:rx="27.857143"
       sodipodi:ry="27.857143"
       d="m 174.28572,757.36218 a 27.857143,27.857143 0 1 1 -55.71429,0 27.857143,27.857143 0 1 1 55.71429,0 z"
       transform="matrix(0.6336304,0,0,0.58234835,355.31162,164.52785)" />
    <path
       style="fill:none;stroke:#000000;stroke-width:1px;stroke-linecap:butt;stroke-linejoin:miter;stroke-opacity:1"
       d="m 298.09322,607.00505 c 132.85714,0 132.85714,0 132.85714,0"
       id="path3007-9-7"
       inkscape:connector-curvature="0" />
    <path
       sodipodi:type="arc"
       style="fill:none;stroke:#000000;stroke-width:0.76999998;stroke-miterlimit:4;stroke-opacity:1;stroke-dasharray:none"
       id="path2987-6-6-4"
       sodipodi:cx="146.42857"
       sodipodi:cy="757.36218"
       sodipodi:rx="27.857143"
       sodipodi:ry="27.857143"
       d="m 174.28572,757.36218 a 27.857143,27.857143 0 1 1 -55.71429,0 27.857143,27.857143 0 1 1 55.71429,0 z"
       transform="matrix(0.6336304,0,0,0.58234835,523.16876,163.81357)" />
    <path
       style="fill:none;stroke:#000000;stroke-width:1px;stroke-linecap:butt;stroke-linejoin:miter;stroke-opacity:1"
       d="m 465.95036,606.29077 c 132.85714,0 132.85714,0 132.85714,0"
       id="path3007-2-7"
       inkscape:connector-curvature="0" />
    <path
       style="fill:none;stroke:#000000;stroke-width:1.01065576px;stroke-linecap:butt;stroke-linejoin:miter;stroke-opacity:1"
       d="m 447.85714,758.78008 c 0,-135.70361 0,-135.70361 0,-135.70361"
       id="path3007-6-9-1"
       inkscape:connector-curvature="0" />
    <path
       style="fill:none;stroke:#000000;stroke-width:1.01065576px;stroke-linecap:butt;stroke-linejoin:miter;stroke-opacity:1"
       d="m 617.85714,756.63722 c 0,-135.70361 0,-135.70361 0,-135.70361"
       id="path3007-6-9-7"
       inkscape:connector-curvature="0" />
    <path
       sodipodi:type="arc"
       style="fill:none;stroke:#000000;stroke-width:0.76999998;stroke-miterlimit:4;stroke-opacity:1;stroke-dasharray:none"
       id="path2987-2"
       sodipodi:cx="146.42857"
       sodipodi:cy="757.36218"
       sodipodi:rx="27.857143"
       sodipodi:ry="27.857143"
       d="m 174.28572,757.36218 a 27.857143,27.857143 0 1 1 -55.71429,0 27.857143,27.857143 0 1 1 55.71429,0 z"
       transform="matrix(0.6336304,0,0,0.58234835,20.671808,0.95642135)" />
    <path
       sodipodi:type="arc"
       style="fill:none;stroke:#000000;stroke-width:0.76999998;stroke-miterlimit:4;stroke-opacity:1;stroke-dasharray:none"
       id="path2987-6-4"
       sodipodi:cx="146.42857"
       sodipodi:cy="757.36218"
       sodipodi:rx="27.857143"
       sodipodi:ry="27.857143"
       d="m 174.28572,757.36218 a 27.857143,27.857143 0 1 1 -55.71429,0 27.857143,27.857143 0 1 1 55.71429,0 z"
       transform="matrix(0.6336304,0,0,0.58234835,188.1718,0.59927135)" />
    <path
       style="fill:none;stroke:#000000;stroke-width:1px;stroke-linecap:butt;stroke-linejoin:miter;stroke-opacity:1"
       d="m 130.9534,443.07647 c 132.85714,0 132.85714,0 132.85714,0"
       id="path3007-3"
       inkscape:connector-curvature="0" />
    <path
       sodipodi:type="arc"
       style="fill:none;stroke:#000000;stroke-width:0.76999998;stroke-miterlimit:4;stroke-opacity:1;stroke-dasharray:none"
       id="path2987-6-7-5"
       sodipodi:cx="146.42857"
       sodipodi:cy="757.36218"
       sodipodi:rx="27.857143"
       sodipodi:ry="27.857143"
       d="m 174.28572,757.36218 a 27.857143,27.857143 0 1 1 -55.71429,0 27.857143,27.857143 0 1 1 55.71429,0 z"
       transform="matrix(0.6336304,0,0,0.58234835,355.90786,0.59928135)" />
    <path
       style="fill:none;stroke:#000000;stroke-width:1px;stroke-linecap:butt;stroke-linejoin:miter;stroke-opacity:1"
       d="m 298.68946,443.07648 c 132.85714,0 132.85714,0 132.85714,0"
       id="path3007-9-9"
       inkscape:connector-curvature="0" />
    <path
       sodipodi:type="arc"
       style="fill:none;stroke:#000000;stroke-width:0.76999998;stroke-miterlimit:4;stroke-opacity:1;stroke-dasharray:none"
       id="path2987-6-6-1"
       sodipodi:cx="146.42857"
       sodipodi:cy="757.36218"
       sodipodi:rx="27.857143"
       sodipodi:ry="27.857143"
       d="m 174.28572,757.36218 a 27.857143,27.857143 0 1 1 -55.71429,0 27.857143,27.857143 0 1 1 55.71429,0 z"
       transform="matrix(0.6336304,0,0,0.58234835,523.765,-0.11499867)" />
    <path
       style="fill:none;stroke:#000000;stroke-width:1px;stroke-linecap:butt;stroke-linejoin:miter;stroke-opacity:1"
       d="m 466.5466,442.3622 c 132.85714,0 132.85714,0 132.85714,0"
       id="path3007-2-6"
       inkscape:connector-curvature="0" />
    <path
       style="fill:none;stroke:#000000;stroke-width:1px;stroke-linecap:butt;stroke-linejoin:miter;stroke-opacity:1"
       d="m 113.81054,425.21932 c 0,-132.85714 0,-132.85714 0,-132.85714"
       id="path3007-6-8"
       inkscape:connector-curvature="0" />
    <path
       style="fill:none;stroke:#000000;stroke-width:1px;stroke-linecap:butt;stroke-linejoin:miter;stroke-opacity:1"
       d="m 280.9534,425.21933 c 0,-132.85714 0,-132.85714 0,-132.85714"
       id="path3007-6-9-8"
       inkscape:connector-curvature="0" />
    <path
       sodipodi:type="arc"
       style="fill:none;stroke:#000000;stroke-width:0.76999998;stroke-miterlimit:4;stroke-opacity:1;stroke-dasharray:none"
       id="path2987-9-6"
       sodipodi:cx="146.42857"
       sodipodi:cy="757.36218"
       sodipodi:rx="27.857143"
       sodipodi:ry="27.857143"
       d="m 174.28572,757.36218 a 27.857143,27.857143 0 1 1 -55.71429,0 27.857143,27.857143 0 1 1 55.71429,0 z"
       transform="matrix(0.6336304,0,0,0.58234835,20.850379,-165.65072)" />
    <path
       sodipodi:type="arc"
       style="fill:none;stroke:#000000;stroke-width:0.76999998;stroke-miterlimit:4;stroke-opacity:1;stroke-dasharray:none"
       id="path2987-6-65-3"
       sodipodi:cx="146.42857"
       sodipodi:cy="757.36218"
       sodipodi:rx="27.857143"
       sodipodi:ry="27.857143"
       d="m 174.28572,757.36218 a 27.857143,27.857143 0 1 1 -55.71429,0 27.857143,27.857143 0 1 1 55.71429,0 z"
       transform="matrix(0.6336304,0,0,0.58234835,188.35037,-166.00787)" />
    <path
       style="fill:none;stroke:#000000;stroke-width:1px;stroke-linecap:butt;stroke-linejoin:miter;stroke-opacity:1"
       d="m 130.9534,273.79076 c 132.85714,0 132.85714,0 132.85714,0"
       id="path3007-95-7"
       inkscape:connector-curvature="0" />
    <path
       sodipodi:type="arc"
       style="fill:none;stroke:#000000;stroke-width:0.76999998;stroke-miterlimit:4;stroke-opacity:1;stroke-dasharray:none"
       id="path2987-6-7-1-2"
       sodipodi:cx="146.42857"
       sodipodi:cy="757.36218"
       sodipodi:rx="27.857143"
       sodipodi:ry="27.857143"
       d="m 174.28572,757.36218 a 27.857143,27.857143 0 1 1 -55.71429,0 27.857143,27.857143 0 1 1 55.71429,0 z"
       transform="matrix(0.6336304,0,0,0.58234835,355.55073,-167.61501)" />
    <path
       style="fill:none;stroke:#000000;stroke-width:1px;stroke-linecap:butt;stroke-linejoin:miter;stroke-opacity:1"
       d="m 298.33233,274.86219 c 132.85714,0 132.85714,0 132.85714,0"
       id="path3007-9-7-2"
       inkscape:connector-curvature="0" />
    <path
       sodipodi:type="arc"
       style="fill:none;stroke:#000000;stroke-width:0.76999998;stroke-miterlimit:4;stroke-opacity:1;stroke-dasharray:none"
       id="path2987-6-6-4-2"
       sodipodi:cx="146.42857"
       sodipodi:cy="757.36218"
       sodipodi:rx="27.857143"
       sodipodi:ry="27.857143"
       d="m 174.28572,757.36218 a 27.857143,27.857143 0 1 1 -55.71429,0 27.857143,27.857143 0 1 1 55.71429,0 z"
       transform="matrix(0.6336304,0,0,0.58234835,523.40787,-168.32929)" />
    <path
       style="fill:none;stroke:#000000;stroke-width:1px;stroke-linecap:butt;stroke-linejoin:miter;stroke-opacity:1"
       d="m 466.18947,274.14791 c 132.85714,0 132.85714,0 132.85714,0"
       id="path3007-2-7-0"
       inkscape:connector-curvature="0" />
    <path
       style="fill:none;stroke:#000000;stroke-width:1.01065576px;stroke-linecap:butt;stroke-linejoin:miter;stroke-opacity:1"
       d="m 448.09625,426.63722 c 0,-135.70361 0,-135.70361 0,-135.70361"
       id="path3007-6-9-1-7"
       inkscape:connector-curvature="0" />
    <path
       style="fill:none;stroke:#000000;stroke-width:1.01065576px;stroke-linecap:butt;stroke-linejoin:miter;stroke-opacity:1"
       d="m 618.09625,424.49436 c 0,-135.70361 0,-135.70361 0,-135.70361"
       id="path3007-6-9-7-4"
       inkscape:connector-curvature="0" />
    <path
       style="fill:none;stroke:#000000;stroke-width:1px;stroke-linecap:butt;stroke-linejoin:miter;stroke-opacity:1"
       d="m 113.57143,590.93361 c 0,-132.85714 0,-132.85714 0,-132.85714"
       id="path3007-6-1"
       inkscape:connector-curvature="0" />
    <path
       style="fill:none;stroke:#000000;stroke-width:1px;stroke-linecap:butt;stroke-linejoin:miter;stroke-opacity:1"
       d="m 281.42857,590.93361 c 0,-132.85714 0,-132.85714 0,-132.85714"
       id="path3007-6-1-2"
       inkscape:connector-curvature="0" />
    <path
       style="fill:none;stroke:#000000;stroke-width:1px;stroke-linecap:butt;stroke-linejoin:miter;stroke-opacity:1"
       d="m 448.92857,590.21933 c 0,-132.85714 0,-132.85714 0,-132.85714"
       id="path3007-6-1-8"
       inkscape:connector-curvature="0" />
    <path
       style="fill:none;stroke:#000000;stroke-width:1px;stroke-linecap:butt;stroke-linejoin:miter;stroke-opacity:1"
       d="m 616.78571,590.21933 c 0,-132.85714 0,-132.85714 0,-132.85714"
       id="path3007-6-1-2-6"
       inkscape:connector-curvature="0" />
    <text
       xml:space="preserve"
       style="font-size:16px;font-style:normal;font-variant:normal;font-weight:normal;font-stretch:normal;line-height:125%;letter-spacing:0px;word-spacing:0px;fill:#000000;fill-opacity:1;stroke:none;font-family:Arial;-inkscape-font-specification:Arial"
       x="102.14286"
       y="778.07648"
       id="text5011"
       sodipodi:linespacing="125%"><tspan
         sodipodi:role="line"
         id="tspan5013"
         x="102.14286"
         y="778.07648">R0</tspan></text>
    <text
       xml:space="preserve"
       style="font-size:16px;font-style:normal;font-variant:normal;font-weight:normal;font-stretch:normal;line-height:125%;letter-spacing:0px;word-spacing:0px;fill:#000000;fill-opacity:1;stroke:none;font-family:Arial;-inkscape-font-specification:Arial"
       x="270.952"
       y="779.44312"
       id="text5011-3"
       sodipodi:linespacing="125%"><tspan
         sodipodi:role="line"
         id="tspan5013-2"
         x="270.952"
         y="779.44312">R1</tspan></text>
    <text
       xml:space="preserve"
       style="font-size:16px;font-style:normal;font-variant:normal;font-weight:normal;font-stretch:normal;line-height:125%;letter-spacing:0px;word-spacing:0px;fill:#000000;fill-opacity:1;stroke:none;font-family:Arial;-inkscape-font-specification:Arial"
       x="438.09488"
       y="778.72882"
       id="text5011-7"
       sodipodi:linespacing="125%"><tspan
         sodipodi:role="line"
         id="tspan5013-4"
         x="438.09488"
         y="778.72882">R2</tspan></text>
    <text
       xml:space="preserve"
       style="font-size:16px;font-style:normal;font-variant:normal;font-weight:normal;font-stretch:normal;line-height:125%;letter-spacing:0px;word-spacing:0px;fill:#000000;fill-opacity:1;stroke:none;font-family:Arial;-inkscape-font-specification:Arial"
       x="604.52344"
       y="778.01453"
       id="text5011-6"
       sodipodi:linespacing="125%"><tspan
         sodipodi:role="line"
         id="tspan5013-8"
         x="604.52344"
         y="778.01453">R3</tspan></text>
    <text
       xml:space="preserve"
       style="font-size:16px;font-style:normal;font-variant:normal;font-weight:normal;font-stretch:normal;line-height:125%;letter-spacing:0px;word-spacing:0px;fill:#000000;fill-opacity:1;stroke:none;font-family:Arial;-inkscape-font-specification:Arial"
       x="103.09487"
       y="611.58594"
       id="text5011-9"
       sodipodi:linespacing="125%"><tspan
         sodipodi:role="line"
         id="tspan5013-9"
         x="103.09487"
         y="611.58594">R4</tspan></text>
    <text
       xml:space="preserve"
       style="font-size:16px;font-style:normal;font-variant:normal;font-weight:normal;font-stretch:normal;line-height:125%;letter-spacing:0px;word-spacing:0px;fill:#000000;fill-opacity:1;stroke:none;font-family:Arial;-inkscape-font-specification:Arial"
       x="268.80914"
       y="613.01453"
       id="text5011-8"
       sodipodi:linespacing="125%"><tspan
         sodipodi:role="line"
         id="tspan5013-20"
         x="268.80914"
         y="613.01453">R5</tspan></text>
    <text
       xml:space="preserve"
       style="font-size:16px;font-style:normal;font-variant:normal;font-weight:normal;font-stretch:normal;line-height:125%;letter-spacing:0px;word-spacing:0px;fill:#000000;fill-opacity:1;stroke:none;font-family:Arial;-inkscape-font-specification:Arial"
       x="438.09485"
       y="610.87164"
       id="text5011-2"
       sodipodi:linespacing="125%"><tspan
         sodipodi:role="line"
         id="tspan5013-5"
         x="438.09485"
         y="610.87164">R6</tspan></text>
    <text
       xml:space="preserve"
       style="font-size:16px;font-style:normal;font-variant:normal;font-weight:normal;font-stretch:normal;line-height:125%;letter-spacing:0px;word-spacing:0px;fill:#000000;fill-opacity:1;stroke:none;font-family:Arial;-inkscape-font-specification:Arial"
       x="608.09485"
       y="611.58594"
       id="text5011-4"
       sodipodi:linespacing="125%"><tspan
         sodipodi:role="line"
         id="tspan5013-58"
         x="608.09485"
         y="611.58594">R7</tspan></text>
    <text
       xml:space="preserve"
       style="font-size:16px;font-style:normal;font-variant:normal;font-weight:normal;font-stretch:normal;line-height:125%;letter-spacing:0px;word-spacing:0px;fill:#000000;fill-opacity:1;stroke:none;font-family:Arial;-inkscape-font-specification:Arial"
       x="103.80915"
       y="445.15738"
       id="text5011-81"
       sodipodi:linespacing="125%"
       inkscape:transform-center-y="-10.714286"><tspan
         sodipodi:role="line"
         id="tspan5013-3"
         x="103.80915"
         y="445.15738">R8</tspan></text>
    <text
       xml:space="preserve"
       style="font-size:16px;font-style:normal;font-variant:normal;font-weight:normal;font-stretch:normal;line-height:125%;letter-spacing:0px;word-spacing:0px;fill:#000000;fill-opacity:1;stroke:none;font-family:Arial;-inkscape-font-specification:Arial"
       x="269.52344"
       y="445.87167"
       id="text5011-819"
       sodipodi:linespacing="125%"><tspan
         sodipodi:role="line"
         id="tspan5013-96"
         x="269.52344"
         y="445.87167">R9</tspan></text>
    <text
       xml:space="preserve"
       style="font-size:16px;font-style:normal;font-variant:normal;font-weight:normal;font-stretch:normal;line-height:125%;letter-spacing:0px;word-spacing:0px;fill:#000000;fill-opacity:1;stroke:none;font-family:Arial;-inkscape-font-specification:Arial"
       x="435.952"
       y="448.01453"
       id="text5011-23"
       sodipodi:linespacing="125%"><tspan
         sodipodi:role="line"
         id="tspan5013-7"
         x="435.952"
         y="448.01453">R10</tspan></text>
    <text
       xml:space="preserve"
       style="font-size:16px;font-style:normal;font-variant:normal;font-weight:normal;font-stretch:normal;line-height:125%;letter-spacing:0px;word-spacing:0px;fill:#000000;fill-opacity:1;stroke:none;font-family:Arial;-inkscape-font-specification:Arial"
       x="603.80914"
       y="445.15741"
       id="text5011-1"
       sodipodi:linespacing="125%"><tspan
         sodipodi:role="line"
         id="tspan5013-78"
         x="603.80914"
         y="445.15741">R11</tspan></text>
    <text
       xml:space="preserve"
       style="font-size:16px;font-style:normal;font-variant:normal;font-weight:normal;font-stretch:normal;line-height:125%;letter-spacing:0px;word-spacing:0px;fill:#000000;fill-opacity:1;stroke:none;font-family:Arial;-inkscape-font-specification:Arial"
       x="100.952"
       y="280.87167"
       id="text5011-61"
       sodipodi:linespacing="125%"
       inkscape:transform-center-x="-9.21875"
       inkscape:transform-center-y="5.8476562"><tspan
         sodipodi:role="line"
         id="tspan5013-1"
         x="100.952"
         y="280.87167">R12</tspan></text>
    <text
       xml:space="preserve"
       style="font-size:16px;font-style:normal;font-variant:normal;font-weight:normal;font-stretch:normal;line-height:125%;letter-spacing:0px;word-spacing:0px;fill:#000000;fill-opacity:1;stroke:none;font-family:Arial;-inkscape-font-specification:Arial"
       x="268.09488"
       y="280.15735"
       id="text5011-19"
       sodipodi:linespacing="125%"><tspan
         sodipodi:role="line"
         id="tspan5013-26"
         x="268.09488"
         y="280.15735">R13</tspan></text>
    <text
       xml:space="preserve"
       style="font-size:16px;font-style:normal;font-variant:normal;font-weight:normal;font-stretch:normal;line-height:125%;letter-spacing:0px;word-spacing:0px;fill:#000000;fill-opacity:1;stroke:none;font-family:Arial;-inkscape-font-specification:Arial"
       x="435.2377"
       y="277.30023"
       id="text5011-83"
       sodipodi:linespacing="125%"><tspan
         sodipodi:role="line"
         id="tspan5013-87"
         x="435.2377"
         y="277.30023">R14</tspan></text>
    <text
       xml:space="preserve"
       style="font-size:16px;font-style:normal;font-variant:normal;font-weight:normal;font-stretch:normal;line-height:125%;letter-spacing:0px;word-spacing:0px;fill:#000000;fill-opacity:1;stroke:none;font-family:Arial;-inkscape-font-specification:Arial"
       x="603.80914"
       y="280.15738"
       id="text5011-91"
       sodipodi:linespacing="125%"><tspan
         sodipodi:role="line"
         id="tspan5013-47"
         x="603.80914"
         y="280.15738">R15</tspan></text>
    <path
       style="fill:none;stroke:#0000ff;stroke-width:1px;stroke-linecap:butt;stroke-linejoin:miter;stroke-opacity:1;marker-end:url(#Arrow1Lend-95-92-56);marker-mid:url(#Arrow1Lend-95-92-56)"
       d="m 287.14286,762.36218 170,0 0,-348.57143"
       id="path3240"
       inkscape:connector-curvature="0" />
  </g>
</svg>
